<svg viewBox="0 0 1600 300"
     width="100%" height="120"
     role="img" aria-label="Taroscoper.com"
     xmlns="http://www.w3.org/2000/svg"
     preserveAspectRatio="xMidYMid meet"
     style="display:block;text-rendering:geometricPrecision;shape-rendering:geometricPrecision">

  <!-- Gradient (kept, it's iOS-safe) -->
  <defs>
    <linearGradient id="goldGrad" x1="0" y1="0" x2="0" y2="1">
      <stop offset="0%" stop-color="#E7D8B2"/>
      <stop offset="55%" stop-color="#D6B25E"/>
      <stop offset="100%" stop-color="#B38535"/>
    </linearGradient>
  </defs>

  <!-- Moon: big gold circle + smaller background-colored circle to carve crescent -->
  <circle cx="130" cy="150" r="65" fill="#D6B25E"/>
  <circle cx="155" cy="140" r="55" fill="#0b0b0e"/>

  <!-- Stars (inline paths, no <use>) -->
  <path d="M200 100 l1.6 6.4 6.4 1.6 -6.4 1.6 -1.6 6.4 -1.6 -6.4 -6.4 -1.6 6.4 -1.6z" fill="#D6B25E" opacity="0.95"/>
  <path d="M230 126 l1.2 4.8 4.8 1.2 -4.8 1.2 -1.2 4.8 -1.2 -4.8 -4.8 -1.2 4.8 -1.2z" fill="#D6B25E" opacity="0.88"/>
  <path d="M195 154 l1 4 4 1 -4 1 -1 4 -1 -4 -4 -1 4 -1z" fill="#D6B25E" opacity="0.82"/>

  <!-- Wordmark (consider converting to path for razor sharpness) -->
  <text x="280" y="195"
        fill="#D6B25E"
        font-size="140"
        font-weight="800"
        letter-spacing=".04em"
        font-family="Georgia, 'Times New Roman', serif">
    Taroscoper.com
  </text>
</svg>
